<svg width="14" height="14" viewBox="0 0 14 14" fill="none" xmlns="http://www.w3.org/2000/svg">
<path d="M1.54632 7.9248H6.14174V12.5202C6.14174 12.9873 6.52595 13.379 7.00056 13.379C7.47517 13.379 7.85937 12.9873 7.85937 12.5202V7.9248H12.4548C12.9219 7.9248 13.3136 7.5406 13.3136 7.06599C13.3136 6.59138 12.9219 6.20717 12.4548 6.20717H7.85937V1.61175C7.85937 1.14467 7.47517 0.75293 7.00056 0.75293C6.52595 0.75293 6.14174 1.14467 6.14174 1.61175V6.20717H1.54632C1.07924 6.20717 0.6875 6.59138 0.6875 7.06599C0.6875 7.5406 1.07924 7.9248 1.54632 7.9248Z" fill="#1A0F91"/>
</svg>
