<svg width="14" height="13" viewBox="0 0 14 13" fill="none" xmlns="http://www.w3.org/2000/svg">
<path d="M1.16194 10.69C0.845537 11.0064 0.83047 11.5714 1.16948 11.9029C1.50095 12.2343 2.06596 12.2268 2.38237 11.9104L6.99286 7.29238L11.6109 11.9104C11.9348 12.2343 12.4923 12.2343 12.8238 11.9029C13.1477 11.5639 13.1552 11.0139 12.8238 10.69L8.21328 6.07196L12.8238 1.46147C13.1552 1.13753 13.1552 0.580051 12.8238 0.248578C12.4848 -0.0753616 11.9348 -0.0828951 11.6109 0.241045L6.99286 4.85907L2.38237 0.241045C2.06596 -0.0753616 1.49342 -0.0904285 1.16948 0.248578C0.838003 0.580051 0.845537 1.14506 1.16194 1.46147L5.77997 6.07196L1.16194 10.69Z" fill="#1A0F91"/>
</svg>
